<svg width="978" height="137" viewBox="0 0 978 137" fill="none" xmlns="http://www.w3.org/2000/svg">
<path d="M216.021 64.1363C218.896 64.1363 221.217 63.7114 222.981 62.8617C224.812 61.9467 226.184 60.6721 227.099 59.0381C228.014 57.3387 228.472 55.3452 228.472 53.0576C228.472 49.5934 227.459 46.9136 225.433 45.0181C223.406 43.0573 220.269 42.0769 216.021 42.0769H200.824V64.1363H216.021ZM240.237 53.0576C240.237 55.5413 239.812 57.9923 238.962 60.4107C238.113 62.8291 236.74 65.084 234.845 67.1756C232.949 69.2018 230.433 70.8358 227.295 72.0777C224.223 73.2542 220.465 73.8424 216.021 73.8424H200.824V101H189.157V32.3707H216.021C221.511 32.3707 226.021 33.3185 229.55 35.214C233.145 37.0441 235.825 39.5605 237.59 42.7632C239.354 45.9005 240.237 49.332 240.237 53.0576ZM250.515 51.9791H260.515L261.398 58.0577C262.705 56.4237 264.241 55.0838 266.006 54.038C267.77 52.9268 269.666 52.1752 271.692 51.783C273.784 51.3909 275.875 51.4562 277.967 51.9791V62.1754C276.267 61.5872 274.437 61.4565 272.476 61.7833C270.581 62.0447 268.816 62.7637 267.182 63.9402C265.548 65.0513 264.208 66.6527 263.163 68.7442C262.117 70.7704 261.594 73.2869 261.594 76.2935V101H250.515V51.9791ZM308.57 101.686C303.864 101.686 299.648 100.673 295.922 98.647C292.197 96.5554 289.288 93.6469 287.197 89.9213C285.105 86.1303 284.059 81.6858 284.059 76.5876C284.059 71.4241 285.138 66.9468 287.295 63.1559C289.451 59.3649 292.425 56.4563 296.216 54.4301C300.007 52.3386 304.223 51.2928 308.864 51.2928C313.57 51.2928 317.786 52.3386 321.511 54.4301C325.302 56.4563 328.309 59.3649 330.531 63.1559C332.753 66.8815 333.864 71.2933 333.864 76.3915C333.864 81.555 332.721 86.0323 330.433 89.8232C328.211 93.6142 325.171 96.5554 321.315 98.647C317.524 100.673 313.276 101.686 308.57 101.686ZM308.472 91.7841C310.759 91.7841 312.916 91.2285 314.942 90.1174C317.034 89.0062 318.733 87.3395 320.041 85.1172C321.348 82.8296 322.001 79.921 322.001 76.3915C322.001 72.9927 321.38 70.1822 320.139 67.9599C318.897 65.6723 317.263 63.9729 315.236 62.8617C313.21 61.7506 311.021 61.195 308.668 61.195C306.38 61.195 304.256 61.7506 302.295 62.8617C300.399 63.9729 298.864 65.6723 297.687 67.9599C296.511 70.1822 295.922 73.0581 295.922 76.5876C295.922 79.9864 296.478 82.8296 297.589 85.1172C298.765 87.3395 300.301 89.0062 302.197 90.1174C304.092 91.2285 306.184 91.7841 308.472 91.7841ZM354.053 93.7449L355.327 93.4508V120.608H344.248V51.9791H354.249L355.033 58.0577C356.667 56.1622 358.791 54.5609 361.406 53.2536C364.02 51.9464 367.19 51.2928 370.916 51.2928C375.164 51.2928 378.923 52.3386 382.191 54.4301C385.524 56.5217 388.106 59.463 389.936 63.2539C391.831 66.9795 392.779 71.3914 392.779 76.4896C392.779 81.5224 391.831 85.9342 389.936 89.7252C388.106 93.5161 385.557 96.4574 382.289 98.549C379.021 100.641 375.23 101.686 370.916 101.686C366.994 101.686 363.595 100.935 360.719 99.4313C357.844 97.8627 355.621 95.9672 354.053 93.7449ZM380.916 76.4896C380.916 71.9796 379.707 68.3194 377.289 65.5089C374.936 62.6983 371.896 61.2931 368.171 61.2931C365.818 61.2931 363.661 61.8813 361.7 63.0578C359.804 64.2343 358.268 65.9337 357.092 68.156C355.915 70.3783 355.327 73.1561 355.327 76.4896C355.327 79.7576 355.915 82.5355 357.092 84.8231C358.268 87.0454 359.804 88.7448 361.7 89.9213C363.661 91.0978 365.818 91.686 368.171 91.686C371.896 91.686 374.936 90.2808 377.289 87.4702C379.707 84.6597 380.916 80.9995 380.916 76.4896ZM425.092 101.686C420.19 101.686 415.876 100.608 412.151 98.4509C408.491 96.294 405.615 93.2874 403.523 89.4311C401.497 85.5748 400.484 81.1302 400.484 76.0974C400.484 71.326 401.497 67.0775 403.523 63.352C405.549 59.6264 408.36 56.6851 411.955 54.5282C415.55 52.3713 419.635 51.2928 424.21 51.2928C428.851 51.2928 432.936 52.3059 436.465 54.3321C439.995 56.3583 442.74 59.2015 444.701 62.8617C446.727 66.4566 447.74 70.6397 447.74 75.4111C447.74 76.1954 447.707 77.0451 447.642 77.9602C447.577 78.8099 447.479 79.7249 447.348 80.7053H412.445C412.772 82.993 413.491 84.9865 414.602 86.6859C415.778 88.3199 417.249 89.5945 419.014 90.5095C420.778 91.4246 422.805 91.8821 425.092 91.8821C427.837 91.8821 430.289 91.3265 432.445 90.2154C434.668 89.1043 436.204 87.6336 437.053 85.8035L446.76 89.0389C444.799 92.9606 441.89 96.0652 438.034 98.3529C434.178 100.575 429.864 101.686 425.092 101.686ZM435.681 71.6855C435.615 69.6593 435.06 67.8292 434.014 66.1952C432.968 64.5611 431.596 63.2866 429.896 62.3715C428.197 61.3911 426.301 60.9009 424.21 60.9009C422.38 60.9009 420.648 61.3584 419.014 62.2735C417.38 63.1885 415.974 64.4631 414.798 66.0971C413.687 67.6658 412.968 69.5286 412.641 71.6855H435.681ZM458.184 51.9791H468.184L469.066 58.0577C470.374 56.4237 471.91 55.0838 473.674 54.038C475.439 52.9268 477.335 52.1752 479.361 51.783C481.452 51.3909 483.544 51.4562 485.635 51.9791V62.1754C483.936 61.5872 482.106 61.4565 480.145 61.7833C478.25 62.0447 476.485 62.7637 474.851 63.9402C473.217 65.0513 471.877 66.6527 470.831 68.7442C469.785 70.7704 469.262 73.2869 469.262 76.2935V101H458.184V51.9791ZM497.512 51.9791V38.2533H508.787V51.9791H520.258V61.6852H508.787V83.4505C508.787 86.3918 509.343 88.4507 510.454 89.6272C511.565 90.7383 513.003 91.3592 514.768 91.4899C516.598 91.5553 518.428 91.4573 520.258 91.1958V100.608C517.447 101.196 514.67 101.359 511.924 101.098C509.245 100.902 506.826 100.183 504.669 98.9411C502.512 97.6339 500.78 95.7384 499.473 93.2547C498.166 90.771 497.512 87.5029 497.512 83.4505V61.6852H490.649V51.9791H497.512ZM563.33 51.9791H574.997L546.173 120.608H535.192L544.016 99.6274L524.898 51.9791H537.153L550.095 86.6859L563.33 51.9791ZM611.853 101H598.716L579.009 32.3707H591.559L605.285 87.6663L619.893 32.3707H632.932L647.345 87.4702L661.267 32.3707H673.62L654.11 101H640.776L626.364 49.7241L611.853 101ZM704.473 101.686C699.571 101.686 695.257 100.608 691.532 98.4509C687.871 96.294 684.995 93.2874 682.904 89.4311C680.878 85.5748 679.865 81.1302 679.865 76.0974C679.865 71.326 680.878 67.0775 682.904 63.352C684.93 59.6264 687.741 56.6851 691.336 54.5282C694.93 52.3713 699.015 51.2928 703.591 51.2928C708.231 51.2928 712.316 52.3059 715.846 54.3321C719.375 56.3583 722.121 59.2015 724.081 62.8617C726.108 66.4566 727.121 70.6397 727.121 75.4111C727.121 76.1954 727.088 77.0451 727.023 77.9602C726.957 78.8099 726.859 79.7249 726.729 80.7053H691.826C692.153 82.993 692.872 84.9865 693.983 86.6859C695.159 88.3199 696.63 89.5945 698.395 90.5095C700.159 91.4246 702.185 91.8821 704.473 91.8821C707.218 91.8821 709.669 91.3265 711.826 90.2154C714.049 89.1043 715.585 87.6336 716.434 85.8035L726.14 89.0389C724.18 92.9606 721.271 96.0652 717.415 98.3529C713.558 100.575 709.244 101.686 704.473 101.686ZM715.062 71.6855C714.996 69.6593 714.441 67.8292 713.395 66.1952C712.349 64.5611 710.977 63.2866 709.277 62.3715C707.578 61.3911 705.682 60.9009 703.591 60.9009C701.761 60.9009 700.029 61.3584 698.395 62.2735C696.761 63.1885 695.355 64.4631 694.179 66.0971C693.068 67.6658 692.349 69.5286 692.022 71.6855H715.062ZM747.369 59.2342C748.937 57.0119 751.16 55.1491 754.036 53.6458C756.911 52.0771 760.31 51.2928 764.232 51.2928C768.546 51.2928 772.337 52.3386 775.605 54.4301C778.873 56.5217 781.422 59.463 783.252 63.2539C785.147 67.0449 786.095 71.4567 786.095 76.4896C786.095 81.5224 785.147 85.9342 783.252 89.7252C781.422 93.5161 778.84 96.4574 775.507 98.549C772.239 100.641 768.48 101.686 764.232 101.686C760.506 101.686 757.336 101.033 754.722 99.7255C752.107 98.4182 749.983 96.8169 748.349 94.9214L747.565 101H737.565V30.4099H748.643V59.5283L747.369 59.2342ZM774.232 76.4896C774.232 71.9796 773.023 68.3194 770.605 65.5089C768.252 62.6983 765.212 61.2931 761.487 61.2931C759.134 61.2931 756.977 61.8813 755.016 63.0578C753.12 64.2343 751.585 65.9664 750.408 68.254C749.232 70.4763 748.643 73.2215 748.643 76.4896C748.643 79.7576 749.232 82.5355 750.408 84.8231C751.585 87.0454 753.12 88.7448 755.016 89.9213C756.977 91.0978 759.134 91.686 761.487 91.686C765.212 91.686 768.252 90.2808 770.605 87.4702C773.023 84.6597 774.232 80.9995 774.232 76.4896ZM826.167 42.0769H822.638L802.049 101H790.088L814.402 32.3707H834.207L858.619 101H846.658L826.167 42.0769ZM803.422 74.6268H843.423V84.2349H803.422V74.6268ZM875.666 93.7449L876.94 93.4508V120.608H865.861V51.9791H875.862L876.646 58.0577C878.28 56.1622 880.404 54.5609 883.019 53.2536C885.633 51.9464 888.803 51.2928 892.529 51.2928C896.777 51.2928 900.536 52.3386 903.804 54.4301C907.137 56.5217 909.719 59.463 911.549 63.2539C913.444 66.9795 914.392 71.3914 914.392 76.4896C914.392 81.5224 913.444 85.9342 911.549 89.7252C909.719 93.5161 907.17 96.4574 903.902 98.549C900.634 100.641 896.843 101.686 892.529 101.686C888.607 101.686 885.208 100.935 882.332 99.4313C879.457 97.8627 877.234 95.9672 875.666 93.7449ZM902.529 76.4896C902.529 71.9796 901.32 68.3194 898.901 65.5089C896.548 62.6983 893.509 61.2931 889.784 61.2931C887.431 61.2931 885.274 61.8813 883.313 63.0578C881.417 64.2343 879.881 65.9337 878.705 68.156C877.528 70.3783 876.94 73.1561 876.94 76.4896C876.94 79.7576 877.528 82.5355 878.705 84.8231C879.881 87.0454 881.417 88.7448 883.313 89.9213C885.274 91.0978 887.431 91.686 889.784 91.686C893.509 91.686 896.548 90.2808 898.901 87.4702C901.32 84.6597 902.529 80.9995 902.529 76.4896ZM934.548 93.7449L935.823 93.4508V120.608H924.744V51.9791H934.744L935.529 58.0577C937.163 56.1622 939.287 54.5609 941.901 53.2536C944.516 51.9464 947.686 51.2928 951.411 51.2928C955.66 51.2928 959.418 52.3386 962.686 54.4301C966.02 56.5217 968.601 59.463 970.431 63.2539C972.327 66.9795 973.275 71.3914 973.275 76.4896C973.275 81.5224 972.327 85.9342 970.431 89.7252C968.601 93.5161 966.052 96.4574 962.784 98.549C959.516 100.641 955.725 101.686 951.411 101.686C947.49 101.686 944.091 100.935 941.215 99.4313C938.339 97.8627 936.117 95.9672 934.548 93.7449ZM961.412 76.4896C961.412 71.9796 960.202 68.3194 957.784 65.5089C955.431 62.6983 952.392 61.2931 948.666 61.2931C946.313 61.2931 944.156 61.8813 942.195 63.0578C940.3 64.2343 938.764 65.9337 937.587 68.156C936.411 70.3783 935.823 73.1561 935.823 76.4896C935.823 79.7576 936.411 82.5355 937.587 84.8231C938.764 87.0454 940.3 88.7448 942.195 89.9213C944.156 91.0978 946.313 91.686 948.666 91.686C952.392 91.686 955.431 90.2808 957.784 87.4702C960.202 84.6597 961.412 80.9995 961.412 76.4896Z" fill="black"/>
<path d="M40 88C43.1576 99.7882 54.2943 108.498 67.5483 108.498C80.8023 108.498 91.939 99.7882 95.0966 88" stroke="#1B63E8" stroke-width="9.92893" stroke-linecap="round" stroke-linejoin="bevel"/>
<path d="M126.517 47.1198L74.0203 7.53908C70.4565 4.8521 65.5435 4.8521 61.9797 7.53908L9.45111 47.144C6.68415 49.2302 5.19446 52.6002 5.51396 56.0508L11.6594 122.422C12.1357 127.566 16.4512 131.5 21.6168 131.5H68H113.939C119.081 131.5 123.385 127.6 123.891 122.483L130.448 56.0875C130.791 52.6173 129.301 49.2191 126.517 47.1198Z" stroke="black" stroke-width="9.93" stroke-linejoin="round"/>
</svg>
